<?xml version="1.0" encoding="UTF-8"?>
<svg width="30px" height="30px" viewBox="0 0 30 30" version="1.1" xmlns="http://www.w3.org/2000/svg" xmlns:xlink="http://www.w3.org/1999/xlink">
    <!-- Generator: Sketch 56.3 (81716) - https://sketch.com -->
    <title>instagram</title>
    <desc>Created with Sketch.</desc>
    <g id="Symbols" stroke="none" stroke-width="1" fill="none" fill-rule="evenodd">
        <g id="Organism/Footer" transform="translate(-1620.000000, -124.000000)" fill="#1E3246" fill-rule="nonzero">
            <g id="instagram" transform="translate(1620.000000, 124.000000)">
                <path d="M17.8710938,15 C17.8710938,16.5856934 16.5856934,17.8710938 15,17.8710938 C13.4143066,17.8710938 12.1289062,16.5856934 12.1289062,15 C12.1289062,13.4143066 13.4143066,12.1289062 15,12.1289062 C16.5856934,12.1289062 17.8710938,13.4143066 17.8710938,15 Z" id="Path"></path>
                <path d="M21.7144775,9.92019656 C21.5764618,9.54620361 21.3562775,9.20768736 21.0701752,8.92982484 C20.7923126,8.64372252 20.4540253,8.42353822 20.0798034,8.28552246 C19.7763062,8.1676483 19.3203735,8.02734375 18.4806061,7.98912047 C17.5721741,7.94769287 17.2998047,7.93876646 15,7.93876646 C12.6999664,7.93876646 12.427597,7.947464 11.5193939,7.9888916 C10.6796265,8.02734375 10.223465,8.1676483 9.92019656,8.28552246 C9.54597475,8.42353822 9.2074585,8.64372252 8.92982484,8.92982484 C8.64372252,9.20768736 8.42353822,9.54597475 8.28529359,9.92019656 C8.16741943,10.2236938 8.02711488,10.6798553 7.9888916,11.5196228 C7.947464,12.4278259 7.9385376,12.7001953 7.9385376,15.0002289 C7.9385376,17.3000336 7.947464,17.572403 7.9888916,18.480835 C8.02711488,19.3206024 8.16741943,19.776535 8.28529359,20.0800324 C8.42353822,20.4542542 8.64349365,20.7925415 8.92959598,21.070404 C9.2074585,21.3565063 9.54574582,21.5766907 9.91996764,21.7147064 C10.223465,21.8328094 10.6796265,21.973114 11.5193939,22.0113373 C12.427597,22.0527649 12.6997376,22.0614624 14.9997711,22.0614624 C17.3000336,22.0614624 17.572403,22.0527649 18.4803772,22.0113373 C19.3201447,21.973114 19.7763062,21.8328094 20.0798034,21.7147064 C20.8309937,21.424942 21.4247132,20.8312225 21.7144775,20.0800324 C21.8323517,19.776535 21.9726563,19.3206024 22.0111084,18.480835 C22.052536,17.572403 22.0612335,17.3000336 22.0612335,15.0002289 C22.0612335,12.7001953 22.052536,12.4278259 22.0111084,11.5196228 C21.9728851,10.6798553 21.8325806,10.2236938 21.7144775,9.92019656 L21.7144775,9.92019656 Z M15,19.4229126 C12.5571442,19.4229126 10.5768585,17.4428558 10.5768585,15 C10.5768585,12.5571442 12.5571442,10.5770874 15,10.5770874 C17.442627,10.5770874 19.4229126,12.5571442 19.4229126,15 C19.4229126,17.4428558 17.442627,19.4229126 15,19.4229126 Z M19.5977783,11.4358521 C19.026947,11.4358521 18.5641479,10.973053 18.5641479,10.4022217 C18.5641479,9.83139035 19.026947,9.36859131 19.5977783,9.36859131 C20.1686096,9.36859131 20.6314087,9.83139035 20.6314087,10.4022217 C20.6311798,10.973053 20.1686096,11.4358521 19.5977783,11.4358521 Z" id="Shape"></path>
                <path d="M15,0 C6.71699525,0 0,6.71699525 0,15 C0,23.2830047 6.71699525,30 15,30 C23.2830047,30 30,23.2830047 30,15 C30,6.71699525 23.2830047,0 15,0 Z M23.5613251,18.5511017 C23.5196686,19.4680023 23.3738708,20.0939941 23.1610107,20.6419372 C22.7135467,21.7989349 21.7989349,22.7135467 20.6419372,23.1610107 C20.094223,23.3738708 19.4680023,23.5194397 18.5513306,23.5613251 C17.6328278,23.6032104 17.3394012,23.6132813 15.0002289,23.6132813 C12.6608276,23.6132813 12.36763,23.6032104 11.4488983,23.5613251 C10.5322266,23.5194397 9.90600586,23.3738708 9.35829164,23.1610107 C8.78334047,22.9447174 8.26286314,22.6057434 7.83256529,22.1674347 C7.39448549,21.7373657 7.05551145,21.2166595 6.83921813,20.6419372 C6.62635805,20.094223 6.48056027,19.4680023 6.43890381,18.5513306 C6.39656068,17.6325989 6.38671875,17.3391724 6.38671875,15 C6.38671875,12.6608276 6.39656068,12.3674011 6.43867494,11.4488983 C6.48033141,10.5319977 6.62590025,9.90600586 6.83876039,9.35806277 C7.05505371,8.78334047 7.39425656,8.26263428 7.83256529,7.83256529 C8.26263428,7.39425656 8.78334047,7.05528258 9.35806277,6.83898926 C9.90600586,6.62612918 10.5319977,6.48056027 11.4488983,6.43867494 C12.3674011,6.39678955 12.6608276,6.38671875 15,6.38671875 C17.3391724,6.38671875 17.6325989,6.39678955 18.5511017,6.43890381 C19.4680023,6.48056027 20.0939941,6.62612918 20.6419372,6.83876039 C21.2166595,7.05505371 21.7373657,7.39425656 22.1676636,7.83256529 C22.6057434,8.26286314 22.9449463,8.78334047 23.1610107,9.35806277 C23.3740997,9.90600586 23.5196686,10.5319977 23.561554,11.4488983 C23.6034393,12.3674011 23.6132812,12.6608276 23.6132812,15 C23.6132812,17.3391724 23.6034393,17.6325989 23.5613251,18.5511017 L23.5613251,18.5511017 Z" id="Shape"></path>
            </g>
        </g>
    </g>
</svg>